<svg width="312" height="43" viewBox="0 0 312 43" fill="none" xmlns="http://www.w3.org/2000/svg">
<path d="M37.2324 21.9525C37.2324 24.8492 36.7283 27.5258 35.7199 29.9825C34.7299 32.4208 33.3274 34.5383 31.5124 36.335C29.6974 38.1133 27.5066 39.5067 24.9399 40.515C22.3916 41.505 19.5591 42 16.4424 42H0.877441V1.9325H16.4424C19.5591 1.9325 22.3916 2.43666 24.9399 3.44499C27.5066 4.45333 29.6974 5.84666 31.5124 7.625C33.3274 9.40333 34.7299 11.5208 35.7199 13.9775C36.7283 16.4158 37.2324 19.0742 37.2324 21.9525ZM27.7174 21.9525C27.7174 19.9725 27.4608 18.185 26.9474 16.59C26.4341 14.995 25.6916 13.6475 24.7199 12.5475C23.7666 11.4292 22.5933 10.5767 21.1999 9.99C19.8066 9.385 18.2208 9.0825 16.4424 9.0825H10.2274V34.85H16.4424C18.2208 34.85 19.8066 34.5567 21.1999 33.97C22.5933 33.365 23.7666 32.5125 24.7199 31.4125C25.6916 30.2942 26.4341 28.9375 26.9474 27.3425C27.4608 25.7475 27.7174 23.9508 27.7174 21.9525Z" fill="#E79796"/>
<path d="M49.2736 17.8825C50.1536 16.3425 51.1619 15.1325 52.2986 14.2525C53.4536 13.3725 54.7736 12.9325 56.2586 12.9325C57.5419 12.9325 58.5869 13.235 59.3936 13.84L58.8436 20.11C58.7519 20.5133 58.5961 20.7883 58.3761 20.935C58.1744 21.0817 57.8902 21.155 57.5236 21.155C57.3769 21.155 57.1844 21.1458 56.9461 21.1275C56.7077 21.1092 56.4602 21.0908 56.2036 21.0725C55.9469 21.0358 55.6811 21.0083 55.4061 20.99C55.1494 20.9533 54.9111 20.935 54.6911 20.935C53.4444 20.935 52.4452 21.265 51.6936 21.925C50.9602 22.585 50.3369 23.5017 49.8236 24.675V42H41.2986V13.4825H46.3586C46.7802 13.4825 47.1286 13.5192 47.4036 13.5925C47.6969 13.6658 47.9352 13.785 48.1186 13.95C48.3202 14.0967 48.4669 14.2983 48.5586 14.555C48.6686 14.8117 48.7602 15.1233 48.8336 15.49L49.2736 17.8825Z" fill="#E79796"/>
<path d="M71.0171 13.4825V42H62.4921V13.4825H71.0171ZM71.897 5.67249C71.897 6.35083 71.7596 6.9925 71.4846 7.5975C71.2095 8.18416 70.8337 8.70666 70.357 9.165C69.8804 9.60499 69.3212 9.96249 68.6796 10.2375C68.0562 10.4942 67.387 10.6225 66.6721 10.6225C65.9754 10.6225 65.3246 10.4942 64.7196 10.2375C64.1146 9.96249 63.5737 9.60499 63.097 9.165C62.6387 8.70666 62.2721 8.18416 61.9971 7.5975C61.7404 6.9925 61.612 6.35083 61.612 5.67249C61.612 4.97583 61.7404 4.32499 61.9971 3.71999C62.2721 3.11499 62.6387 2.58333 63.097 2.12499C63.5737 1.66666 64.1146 1.30916 64.7196 1.05249C65.3246 0.795828 65.9754 0.667496 66.6721 0.667496C67.387 0.667496 68.0562 0.795828 68.6796 1.05249C69.3212 1.30916 69.8804 1.66666 70.357 2.12499C70.8337 2.58333 71.2095 3.11499 71.4846 3.71999C71.7596 4.32499 71.897 4.97583 71.897 5.67249Z" fill="#E79796"/>
<path d="M94.7001 24.3175C94.7001 23.6392 94.6085 22.9792 94.4251 22.3375C94.2601 21.6958 93.976 21.1275 93.5726 20.6325C93.1876 20.1192 92.6743 19.7067 92.0326 19.395C91.391 19.0833 90.6118 18.9275 89.6951 18.9275C88.0818 18.9275 86.8168 19.395 85.9001 20.33C84.9835 21.2467 84.3785 22.5758 84.0851 24.3175H94.7001ZM83.9751 29.2675C84.2501 31.6508 84.9743 33.3833 86.1476 34.465C87.321 35.5283 88.8335 36.06 90.6851 36.06C91.6751 36.06 92.5276 35.9408 93.2426 35.7025C93.9576 35.4642 94.5901 35.1983 95.1401 34.905C95.7085 34.6117 96.2218 34.3458 96.6801 34.1075C97.1568 33.8692 97.6518 33.75 98.1651 33.75C98.8435 33.75 99.3568 33.9975 99.7051 34.4925L102.18 37.545C101.3 38.5533 100.347 39.3783 99.3201 40.02C98.3118 40.6433 97.2668 41.1383 96.1851 41.505C95.1218 41.8533 94.0493 42.0917 92.9676 42.22C91.9043 42.3667 90.8868 42.44 89.9151 42.44C87.9168 42.44 86.0376 42.1192 84.2776 41.4775C82.536 40.8175 81.0051 39.8458 79.6851 38.5625C78.3835 37.2792 77.3476 35.6842 76.5776 33.7775C75.826 31.8708 75.4501 29.6525 75.4501 27.1225C75.4501 25.2158 75.771 23.41 76.4126 21.705C77.0726 20 78.0076 18.5058 79.2176 17.2225C80.446 15.9392 81.9218 14.9217 83.6451 14.17C85.3868 13.4183 87.3485 13.0425 89.5301 13.0425C91.4185 13.0425 93.1418 13.3358 94.7001 13.9225C96.2768 14.5092 97.6243 15.3617 98.7426 16.48C99.8793 17.5983 100.759 18.9733 101.383 20.605C102.024 22.2183 102.345 24.0517 102.345 26.105C102.345 26.7467 102.318 27.2692 102.263 27.6725C102.208 28.0758 102.107 28.3967 101.96 28.635C101.813 28.8733 101.612 29.0383 101.355 29.13C101.117 29.2217 100.805 29.2675 100.42 29.2675H83.9751Z" fill="#E79796"/>
<path d="M115.136 0.832494V42H106.611V0.832494H115.136Z" fill="#E79796"/>
<path d="M129.616 13.4825V42H121.091V13.4825H129.616ZM130.496 5.67249C130.496 6.35083 130.358 6.9925 130.083 7.5975C129.808 8.18416 129.432 8.70666 128.956 9.165C128.479 9.60499 127.92 9.96249 127.278 10.2375C126.655 10.4942 125.986 10.6225 125.271 10.6225C124.574 10.6225 123.923 10.4942 123.318 10.2375C122.713 9.96249 122.172 9.60499 121.696 9.165C121.237 8.70666 120.871 8.18416 120.596 7.5975C120.339 6.9925 120.211 6.35083 120.211 5.67249C120.211 4.97583 120.339 4.32499 120.596 3.71999C120.871 3.11499 121.237 2.58333 121.696 2.12499C122.172 1.66666 122.713 1.30916 123.318 1.05249C123.923 0.795828 124.574 0.667496 125.271 0.667496C125.986 0.667496 126.655 0.795828 127.278 1.05249C127.92 1.30916 128.479 1.66666 128.956 2.12499C129.432 2.58333 129.808 3.11499 130.083 3.71999C130.358 4.32499 130.496 4.97583 130.496 5.67249Z" fill="#E79796"/>
<path d="M158.631 9.0825V19.23H172.326V26.4075H158.631V42H149.281V1.9325H175.076V9.0825H158.631Z" fill="#E79796"/>
<path d="M185.323 17.8825C186.203 16.3425 187.212 15.1325 188.348 14.2525C189.503 13.3725 190.823 12.9325 192.308 12.9325C193.592 12.9325 194.637 13.235 195.443 13.84L194.893 20.11C194.802 20.5133 194.646 20.7883 194.426 20.935C194.224 21.0817 193.94 21.155 193.573 21.155C193.427 21.155 193.234 21.1458 192.996 21.1275C192.758 21.1092 192.51 21.0908 192.253 21.0725C191.997 21.0358 191.731 21.0083 191.456 20.99C191.199 20.9533 190.961 20.935 190.741 20.935C189.494 20.935 188.495 21.265 187.743 21.925C187.01 22.585 186.387 23.5017 185.873 24.675V42H177.348V13.4825H182.408C182.83 13.4825 183.178 13.5192 183.453 13.5925C183.747 13.6658 183.985 13.785 184.168 13.95C184.37 14.0967 184.517 14.2983 184.608 14.555C184.718 14.8117 184.81 15.1233 184.883 15.49L185.323 17.8825Z" fill="#E79796"/>
<path d="M215.603 24.3175C215.603 23.6392 215.512 22.9792 215.328 22.3375C215.163 21.6958 214.879 21.1275 214.476 20.6325C214.091 20.1192 213.578 19.7067 212.936 19.395C212.294 19.0833 211.515 18.9275 210.598 18.9275C208.985 18.9275 207.72 19.395 206.803 20.33C205.887 21.2467 205.282 22.5758 204.988 24.3175H215.603ZM204.878 29.2675C205.153 31.6508 205.878 33.3833 207.051 34.465C208.224 35.5283 209.737 36.06 211.588 36.06C212.578 36.06 213.431 35.9408 214.146 35.7025C214.861 35.4642 215.493 35.1983 216.043 34.905C216.612 34.6117 217.125 34.3458 217.583 34.1075C218.06 33.8692 218.555 33.75 219.068 33.75C219.747 33.75 220.26 33.9975 220.608 34.4925L223.083 37.545C222.203 38.5533 221.25 39.3783 220.223 40.02C219.215 40.6433 218.17 41.1383 217.088 41.505C216.025 41.8533 214.953 42.0917 213.871 42.22C212.808 42.3667 211.79 42.44 210.818 42.44C208.82 42.44 206.941 42.1192 205.181 41.4775C203.439 40.8175 201.908 39.8458 200.588 38.5625C199.287 37.2792 198.251 35.6842 197.481 33.7775C196.729 31.8708 196.353 29.6525 196.353 27.1225C196.353 25.2158 196.674 23.41 197.316 21.705C197.976 20 198.911 18.5058 200.121 17.2225C201.349 15.9392 202.825 14.9217 204.548 14.17C206.29 13.4183 208.252 13.0425 210.433 13.0425C212.322 13.0425 214.045 13.3358 215.603 13.9225C217.18 14.5092 218.528 15.3617 219.646 16.48C220.783 17.5983 221.663 18.9733 222.286 20.605C222.928 22.2183 223.248 24.0517 223.248 26.105C223.248 26.7467 223.221 27.2692 223.166 27.6725C223.111 28.0758 223.01 28.3967 222.863 28.635C222.717 28.8733 222.515 29.0383 222.258 29.13C222.02 29.2217 221.708 29.2675 221.323 29.2675H204.878Z" fill="#E79796"/>
<path d="M236.232 13.4825V42H227.707V13.4825H236.232ZM237.112 5.67249C237.112 6.35083 236.974 6.9925 236.699 7.5975C236.424 8.18416 236.049 8.70666 235.572 9.165C235.095 9.60499 234.536 9.96249 233.894 10.2375C233.271 10.4942 232.602 10.6225 231.887 10.6225C231.19 10.6225 230.539 10.4942 229.934 10.2375C229.329 9.96249 228.789 9.60499 228.312 9.165C227.854 8.70666 227.487 8.18416 227.212 7.5975C226.955 6.9925 226.827 6.35083 226.827 5.67249C226.827 4.97583 226.955 4.32499 227.212 3.71999C227.487 3.11499 227.854 2.58333 228.312 2.12499C228.789 1.66666 229.329 1.30916 229.934 1.05249C230.539 0.795828 231.19 0.667496 231.887 0.667496C232.602 0.667496 233.271 0.795828 233.894 1.05249C234.536 1.30916 235.095 1.66666 235.572 2.12499C236.049 2.58333 236.424 3.11499 236.699 3.71999C236.974 4.32499 237.112 4.97583 237.112 5.67249Z" fill="#E79796"/>
<path d="M252.38 42.44C251.023 42.44 249.822 42.2475 248.777 41.8625C247.751 41.4592 246.88 40.9 246.165 40.185C245.468 39.4517 244.937 38.5717 244.57 37.545C244.203 36.5183 244.02 35.3725 244.02 34.1075V19.3675H241.6C241.16 19.3675 240.784 19.23 240.472 18.955C240.161 18.6617 240.005 18.24 240.005 17.69V14.3625L244.542 13.4825L246.22 6.52499C246.44 5.64499 247.063 5.20499 248.09 5.20499H252.545V13.5375H259.612V19.3675H252.545V33.53C252.545 34.19 252.701 34.74 253.012 35.18C253.342 35.6017 253.81 35.8125 254.415 35.8125C254.727 35.8125 254.983 35.785 255.185 35.73C255.405 35.6567 255.588 35.5833 255.735 35.51C255.9 35.4183 256.047 35.345 256.175 35.29C256.322 35.2167 256.487 35.18 256.67 35.18C256.927 35.18 257.128 35.2442 257.275 35.3725C257.44 35.4825 257.605 35.6658 257.77 35.9225L260.355 39.965C259.255 40.79 258.017 41.4133 256.642 41.835C255.267 42.2383 253.847 42.44 252.38 42.44Z" fill="#E79796"/>
<path d="M277.998 30.395C276.293 30.4683 274.891 30.615 273.791 30.835C272.691 31.055 271.82 31.33 271.178 31.66C270.537 31.99 270.088 32.3658 269.831 32.7875C269.593 33.2092 269.473 33.6675 269.473 34.1625C269.473 35.1342 269.739 35.8217 270.271 36.225C270.803 36.61 271.582 36.8025 272.608 36.8025C273.708 36.8025 274.671 36.61 275.496 36.225C276.321 35.84 277.155 35.2167 277.998 34.355V30.395ZM262.653 17.4425C264.377 15.9208 266.283 14.7933 268.373 14.06C270.482 13.3083 272.737 12.9325 275.138 12.9325C276.862 12.9325 278.411 13.2167 279.786 13.785C281.179 14.335 282.353 15.1142 283.306 16.1225C284.278 17.1125 285.02 18.295 285.533 19.67C286.047 21.045 286.303 22.5483 286.303 24.18V42H282.398C281.592 42 280.978 41.89 280.556 41.67C280.153 41.45 279.813 40.9917 279.538 40.295L278.933 38.7275C278.218 39.3325 277.531 39.8642 276.871 40.3225C276.211 40.7808 275.523 41.175 274.808 41.505C274.112 41.8167 273.36 42.0458 272.553 42.1925C271.765 42.3575 270.885 42.44 269.913 42.44C268.612 42.44 267.429 42.275 266.366 41.945C265.303 41.5967 264.395 41.0925 263.643 40.4325C262.91 39.7725 262.342 38.9567 261.938 37.985C261.535 36.995 261.333 35.8583 261.333 34.575C261.333 33.5483 261.59 32.5125 262.103 31.4675C262.617 30.4042 263.506 29.4417 264.771 28.58C266.036 27.7 267.741 26.9667 269.886 26.38C272.031 25.7933 274.735 25.4633 277.998 25.39V24.18C277.998 22.5117 277.65 21.3108 276.953 20.5775C276.275 19.8258 275.303 19.45 274.038 19.45C273.03 19.45 272.205 19.56 271.563 19.78C270.922 20 270.344 20.2475 269.831 20.5225C269.336 20.7975 268.85 21.045 268.373 21.265C267.897 21.485 267.328 21.595 266.668 21.595C266.082 21.595 265.587 21.4483 265.183 21.155C264.78 20.8617 264.45 20.5133 264.193 20.11L262.653 17.4425Z" fill="#E79796"/>
<path d="M309.875 19.725C309.655 20.0733 309.417 20.3208 309.16 20.4675C308.922 20.6142 308.61 20.6875 308.225 20.6875C307.822 20.6875 307.418 20.605 307.015 20.44C306.612 20.2567 306.172 20.0642 305.695 19.8625C305.237 19.6608 304.714 19.4775 304.128 19.3125C303.541 19.1292 302.872 19.0375 302.12 19.0375C301.039 19.0375 300.204 19.2483 299.618 19.67C299.049 20.0733 298.765 20.6417 298.765 21.375C298.765 21.9067 298.949 22.3467 299.315 22.695C299.7 23.0433 300.204 23.355 300.828 23.63C301.451 23.8867 302.157 24.1342 302.945 24.3725C303.734 24.6108 304.54 24.8767 305.365 25.17C306.19 25.4633 306.997 25.8117 307.785 26.215C308.574 26.6 309.279 27.0858 309.903 27.6725C310.526 28.2408 311.021 28.9375 311.388 29.7625C311.773 30.5875 311.965 31.5775 311.965 32.7325C311.965 34.1442 311.709 35.4458 311.195 36.6375C310.682 37.8292 309.912 38.8558 308.885 39.7175C307.877 40.5792 306.621 41.2483 305.118 41.725C303.633 42.2017 301.919 42.44 299.975 42.44C299.004 42.44 298.032 42.3483 297.06 42.165C296.089 41.9817 295.144 41.7342 294.228 41.4225C293.329 41.1108 292.495 40.7442 291.725 40.3225C290.955 39.8825 290.295 39.415 289.745 38.92L291.725 35.785C291.945 35.4183 292.22 35.1342 292.55 34.9325C292.898 34.7125 293.339 34.6025 293.87 34.6025C294.365 34.6025 294.805 34.7125 295.19 34.9325C295.594 35.1525 296.024 35.3908 296.483 35.6475C296.941 35.9042 297.473 36.1425 298.078 36.3625C298.701 36.5825 299.48 36.6925 300.415 36.6925C301.075 36.6925 301.634 36.6283 302.093 36.5C302.551 36.3533 302.918 36.1608 303.193 35.9225C303.468 35.6842 303.669 35.4183 303.798 35.125C303.926 34.8317 303.99 34.5292 303.99 34.2175C303.99 33.6492 303.798 33.1817 303.413 32.815C303.028 32.4483 302.523 32.1367 301.9 31.88C301.277 31.605 300.562 31.3575 299.755 31.1375C298.967 30.8992 298.16 30.6333 297.335 30.34C296.51 30.0467 295.694 29.6983 294.888 29.295C294.099 28.8733 293.393 28.3508 292.77 27.7275C292.147 27.0858 291.643 26.3067 291.258 25.39C290.873 24.4733 290.68 23.3642 290.68 22.0625C290.68 20.8525 290.909 19.7067 291.368 18.625C291.844 17.525 292.55 16.5625 293.485 15.7375C294.42 14.9125 295.594 14.2617 297.005 13.785C298.417 13.29 300.067 13.0425 301.955 13.0425C302.982 13.0425 303.972 13.1342 304.925 13.3175C305.897 13.5008 306.804 13.7575 307.648 14.0875C308.491 14.4175 309.261 14.8117 309.958 15.27C310.654 15.71 311.268 16.1958 311.8 16.7275L309.875 19.725Z" fill="#E79796"/>
</svg>
